<?xml version="1.0" encoding="utf-8"?>
<!-- Generator: Adobe Illustrator 23.1.1, SVG Export Plug-In . SVG Version: 6.00 Build 0)  -->
<svg version="1.1" id="Capa_1" xmlns="http://www.w3.org/2000/svg" xmlns:xlink="http://www.w3.org/1999/xlink" x="0px" y="0px"
	 viewBox="0 0 512 512" style="enable-background:new 0 0 512 512;" xml:space="preserve">
<style type="text/css">
	.st0{fill:#FFFFFF;}
</style>
<g>
	<path class="st0" d="M497,482h-15V75c0-7.2-5.1-13.3-12.1-14.7l-301-60c-4.4-0.9-9,0.3-12.4,3.1S151,10.5,151,15v226H90V136
		c0-8.3-6.7-15-15-15s-15,6.7-15,15v105H45c-8.3,0-15,6.7-15,15v226H15c-8.3,0-15,6.7-15,15s6.7,15,15,15h482c8.3,0,15-6.7,15-15
		S505.3,482,497,482z M181,33.3l271,54V482h-91v-32.5c34.2-7,60-37.3,60-73.5c0-39.5-31-105-75-105c-43.9,0-75,65.5-75,105
		c0,36.2,25.8,66.5,60,73.5V482h-90V256c0-8.3-6.7-15-15-15h-45V33.3z M346,421c-24.8,0-45-20.2-45-45c0-28.2,23.8-75,45-75
		c21.4,0,45,47,45,75C391,400.8,370.8,421,346,421z M60,271h151v211H60V271z"/>
	<path class="st0" d="M105,331h61c8.3,0,15-6.7,15-15s-6.7-15-15-15h-61c-8.3,0-15,6.7-15,15S96.7,331,105,331z"/>
	<path class="st0" d="M166,361h-61c-8.3,0-15,6.7-15,15s6.7,15,15,15h61c8.3,0,15-6.7,15-15S174.3,361,166,361z"/>
	<path class="st0" d="M166,421h-61c-8.3,0-15,6.7-15,15s6.7,15,15,15h61c8.3,0,15-6.7,15-15S174.3,421,166,421z"/>
	<path class="st0" d="M226,121h60c8.3,0,15-6.7,15-15s-6.7-15-15-15h-60c-8.3,0-15,6.7-15,15S217.7,121,226,121z"/>
	<path class="st0" d="M286,181c8.3,0,15-6.7,15-15s-6.7-15-15-15h-60c-8.3,0-15,6.7-15,15s6.7,15,15,15H286z"/>
	<path class="st0" d="M346,181h60c8.3,0,15-6.7,15-15s-6.7-15-15-15h-60c-8.3,0-15,6.7-15,15S337.7,181,346,181z"/>
	<path class="st0" d="M346,241h60c8.3,0,15-6.7,15-15s-6.7-15-15-15h-60c-8.3,0-15,6.7-15,15S337.7,241,346,241z"/>
</g>
</svg>
