<?xml version="1.0" encoding="utf-8"?>
<!-- Generator: Adobe Illustrator 23.1.1, SVG Export Plug-In . SVG Version: 6.00 Build 0)  -->
<svg version="1.1" id="Layer_1" xmlns="http://www.w3.org/2000/svg" xmlns:xlink="http://www.w3.org/1999/xlink" x="0px" y="0px"
	 viewBox="0 0 263.5 325" style="enable-background:new 0 0 263.5 325;" xml:space="preserve">
<style type="text/css">
	.st0{fill:#FFFFFF;}
</style>
<title>catoutline</title>
<path class="st0" d="M12.7,4.2c-1.3-1-3.2-0.7-4.2,0.6C8.4,5,8.3,5.2,8.2,5.4C6.5,9.6,4,16.5,4,20.6c0,6.3,1.1,13.7,1.1,17.1
	S4,62.2,4,65.7S3.4,76.9,4.5,81.1c1.9,6.6,6.8,14,6.2,18s-7.9,13.4-9.6,21.3c-1.6,7.2-1.1,29.1-0.6,34.2s7.4,40.5,8.6,47.9
	c1.1,7.4,6.3,38.2,6.8,44.5s2.8,31.9,3.4,38.2s1.1,14.8-0.6,16.5s-10.3,0.6-12,4.6s-3.4,10.3,1.7,11.5s18.2,4,22.2,1.1
	s12-6.3,16-6.3h5.3c1.7,0,3,1.3,3,3c0,0.2,0,0.4-0.1,0.6c-0.4,1.5,0,3.1,0.9,4.3c2.8,4,21.7,5.1,26.8,4s8-12,8-15.4s0.6-10.8,4-10.8
	s13.7,0.6,18.8-0.6c5.3-1.3,10.9-0.9,16,1.1c6.3,2.3-9.1,6.3-12,7.4s-10.8,8.6-8,13.1s10.8,4.6,16.5,4.6s27.7-5.8,33.1-6.3
	c6.2-0.6,4.3-7.9,8.6-10.3c6.1-3.4,35.4-5.1,41.1-5.7s17.1-6.3,21.7-6.8s18.2-2.9,23.4-2.9s10.3-1.7,9.7-4.6s0.6-5.1-10.3-5.1h-45.7
	c-5.7,0-18.2,4.6-23.4,1.1s-17.7-16-17.1-26.8s5.7-16.6,3.4-26.2c-1.6-7-13.1-28.5-16.5-36.5s-16-34.8-25.1-43.3s-29.1-20-31.9-25.7
	c-2.9-5.7-6.8-13.7-8.6-21.7s-0.6-18.2,3.4-22.2s5.1-21.7,4-29.7s-4-17-2.3-22.2c1.6-4.9,1.7-12,0.6-17.7S91.2,1.3,88.9,0.1
	s-12,10.3-13.7,13.1s-8.6,12.5-11.4,13.1C61,27,47.8,27,44.4,27s-5.7,1.1-8,0.6s-9.7-10.3-12.5-13.7C22,11.5,16.3,6.9,12.7,4.2z"/>
</svg>
