<svg id="Layer_1" data-name="Layer 1" xmlns="http://www.w3.org/2000/svg" viewBox="0 0 263.5 325.03"><defs><style>.cls-1{fill:#febd44;}</style></defs><title>catoutline</title><path class="cls-1" d="M67.58,17.34A3,3,0,0,0,63,18.59c-1.69,4.19-4.18,11.06-4.18,15.21,0,6.27,1.14,13.68,1.14,17.11s-1.14,24.52-1.14,27.94-.62,11.23.57,15.4c1.87,6.56,6.76,14,6.19,18s-7.87,13.4-9.61,21.33c-1.57,7.18-1.14,29.09-.57,34.22s7.42,40.49,8.56,47.91,6.27,38.21,6.84,44.49,2.85,31.94,3.42,38.21,1.14,14.83-.57,16.54-10.26.57-12,4.56S58.21,329.81,63.35,331s18.25,4,22.24,1.14,12-6.27,16-6.27h5.32a3,3,0,0,1,2.93,3.64,5.17,5.17,0,0,0,.88,4.34c2.85,4,21.67,5.13,26.8,4s8-12,8-15.4.57-10.83,4-10.83,13.69.57,18.82-.57a26.18,26.18,0,0,1,16,1.14c6.27,2.28-9.12,6.27-12,7.41s-10.83,8.56-8,13.12,10.84,4.56,16.54,4.56,27.69-5.75,33.08-6.27c6.23-.6,4.31-7.87,8.55-10.27,6.09-3.43,35.37-5.13,41.07-5.7s17.11-6.27,21.67-6.84,18.25-2.86,23.39-2.86,10.26-1.71,9.69-4.56.57-5.13-10.26-5.13H262.4c-5.7,0-18.25,4.56-23.39,1.14s-17.68-16-17.11-26.81,5.69-16.63,3.43-26.23c-1.65-7-13.12-28.52-16.54-36.51s-16-34.79-25.1-43.34-29.09-20-31.94-25.67-6.84-13.69-8.55-21.67-.57-18.25,3.42-22.25,5.13-21.67,4-29.66-4-17-2.28-22.24c1.58-4.9,1.71-12,.57-17.68s-2.85-10.27-5.13-11.41-12,10.27-13.69,13.12-8.56,12.55-11.41,13.12-16,.57-19.39.57-5.71,1.14-8,.57S81.6,30.37,78.75,27C76.85,24.68,71.17,20.13,67.58,17.34Z" transform="translate(-54.84 -13.18)"/></svg>