<svg id="Layer_1" data-name="Layer 1" xmlns="http://www.w3.org/2000/svg" viewBox="0 0 392.29 249.97"><defs><style>.cls-1{fill:#f4e5d8;}</style></defs><title>facilitiesbackgroundsmall</title><path class="cls-1" d="M-2.56,219.21s15.47,17,29.72,24.22c13.82,6.95,35.15,8,51.41,6.95s61.36-6,76.69-9.22c11.9-2.5,46.87-5.24,64.09-4.14s37.35,6.43,55.52,8.62,38.21,4.08,51.6,4.08,39.22-4.37,45-7.65,14.34-12,14.34-12L387.69,23.3s-17.22-4.37-37.31-10.93-55.08-7-71.73-5.47c-21.39,1.93-52.61,3.37-75.56,5.56S148,15.82,127.86,16.2c-21.7.4-68.62-1-80.86-2.81C34.35,11.51,12.6,6.59,7,3.62A28.69,28.69,0,0,0-4.6.78Z" transform="translate(4.6 -0.78)"/></svg>