<svg id="Layer_1" data-name="Layer 1" xmlns="http://www.w3.org/2000/svg" viewBox="0 0 1295.16 721.66"><defs><style>.cls-1{fill:#f4e5d8;}</style></defs><title>facilitiesbackgroundbig</title><path class="cls-1" d="M-.56,627.73S50.5,677,97.55,697.66c45.63,20.07,116.06,23.23,169.74,20.07s202.59-17.37,253.2-26.63c39.3-7.2,154.74-15.11,211.58-12S855.39,697.73,915.39,704s126.15,11.79,170.36,11.79,129.48-12.63,148.42-22.1S1281.54,659,1281.54,659l6.32-596.84S1231,49.52,1164.7,30.57,982.84,10.44,927.86,14.78c-70.61,5.57-173.68,9.74-249.47,16S496.64,40.55,430,41.63c-71.66,1.15-226.58-2.84-267-8.09C121.28,28.11,49.48,13.9,31,5.31,13.85-2.69-7.3-2.87-7.3-2.87Z" transform="translate(7.3 2.87)"/></svg>