<?xml version="1.0" encoding="utf-8"?>
<!-- Generator: Adobe Illustrator 23.1.1, SVG Export Plug-In . SVG Version: 6.00 Build 0)  -->
<svg version="1.1" id="Capa_1" xmlns="http://www.w3.org/2000/svg" xmlns:xlink="http://www.w3.org/1999/xlink" x="0px" y="0px"
	 viewBox="0 0 21.4 21.4" style="enable-background:new 0 0 21.4 21.4;" xml:space="preserve">
<style type="text/css">
	.st0{fill:#E75934;}
</style>
<g>
	<path class="st0" d="M20.3,10.4c-0.8-1.1-0.5-2.3-0.8-3.4c-0.1-0.6-1.1-0.9-0.8-1.3c1.5-2.3-1.5-3.1-1.5-4.9c0-0.1-0.4-0.4-0.6-0.2
		c-1,1-2.5,0.9-3.6,1.7c-0.5,0.3-0.9,0.3-1.4,0.1c0.2-0.4,0.5-0.9,0.7-1.3c-0.8,0.6-1.9,0.6-2.3,0C9.2-0.6,7.9,0.2,6.6,0
		c1.1,0.5,0.1,1.2,0.4,1.7c0.3,0.4,0.6,0.8-0.1,1.1C6.4,3,6.5,4.1,5.4,3.5C4,2.8,3.5,3.4,3.5,5c0,0.6,0,1.2-0.6,1.5
		C2.7,6.6,2.5,6.6,2.6,6.9C3,8,2.8,8.4,1.7,8.6C1.4,8.7,0.9,8.8,1,9c0.8,1.1-0.8,2.6,0.5,3.6c0.1,0.1,0.1,0.3,0.1,0.5
		c-0.3,2.1,0.4,3,2.5,3.4c0.4,0.1,0.9,0.2,1.5,0.4c-0.8,0.8-1,1.8-1.2,2.7c-0.2,0.9,0.2,1.3,1.1,1c1.3-0.5,2.4-0.1,3.6,0.1
		c0.5,0.1,0.9,0.7,1,0.6c0.9-1.2,2.3,0.2,3.3-0.6c0.5-0.4,1.4-0.4,2-0.1c0.8,0.4,0.9,0.1,0.6-0.6c-0.3-0.7-0.3-1,0.5-1.4
		c1.7-0.8,1.6-1,0.1-2.2c-0.4-0.3-0.8-0.5-1.1-0.8c-0.6-0.7-1.3-1.9-0.7-2.3c1.3-0.9,2.9-1.7,4.4-1.7C20.6,11.6,20.5,10.6,20.3,10.4
		z"/>
</g>
</svg>
