<?xml version="1.0" encoding="utf-8"?>
<!-- Generator: Adobe Illustrator 23.1.1, SVG Export Plug-In . SVG Version: 6.00 Build 0)  -->
<svg version="1.1" id="Layer_1" xmlns="http://www.w3.org/2000/svg" xmlns:xlink="http://www.w3.org/1999/xlink" x="0px" y="0px"
	 viewBox="0 0 512 512" style="enable-background:new 0 0 512 512;" xml:space="preserve">
<style type="text/css">
	.st0{fill:#FFFFFF;}
</style>
<g>
	<path class="st0" d="M303.3,74.9h28.9c4.1,0,7.5-3.4,7.5-7.5s-3.4-7.5-7.5-7.5h-21.4V44.9h21.4c4.1,0,7.5-3.4,7.5-7.5
		s-3.4-7.5-7.5-7.5h-21.4V15h21.4c4.1,0,7.5-3.4,7.5-7.5S336.3,0,332.1,0h-28.9c-4.1,0-7.5,3.4-7.5,7.5v59.9
		C295.8,71.5,299.1,74.9,303.3,74.9z"/>
	<path class="st0" d="M244.5,15h7.4v52.4c0,4.1,3.4,7.5,7.5,7.5s7.5-3.4,7.5-7.5V15h7.4c4.1,0,7.5-3.4,7.5-7.5S278.5,0,274.4,0
		h-29.9c-4.1,0-7.5,3.4-7.5,7.5S240.4,15,244.5,15L244.5,15z"/>
	<path class="st0" d="M186.7,74.9h29.9c4.1,0,7.5-3.4,7.5-7.5V7.5c0-4.1-3.4-7.5-7.5-7.5h-29.9c-4.1,0-7.5,3.4-7.5,7.5v59.9
		C179.2,71.5,182.5,74.9,186.7,74.9z M194.2,15H209v44.9h-14.9V15z"/>
	<path class="st0" d="M429.7,467h-31.1V133.8c11.7-3.3,20.3-14,20.3-26.7c0-9.5-7.7-17.2-17.3-17.2h-3V67.4c0-4.1-3.4-7.5-7.5-7.5
		h-21.4V7.5c0-4.1-3.4-7.5-7.5-7.5s-7.5,3.4-7.5,7.5v59.9c0,4.1,3.4,7.5,7.5,7.5h21.4v15H134.2V44.9H149v22.4c0,4.1,3.4,7.5,7.5,7.5
		s7.5-3.4,7.5-7.5V7.5c0-4.1-3.4-7.5-7.5-7.5S149,3.4,149,7.5v22.4h-14.9V7.5c0-4.1-3.4-7.5-7.5-7.5s-7.5,3.4-7.5,7.5v82.4h-3
		c-9.5,0-17.3,7.7-17.3,17.2c0,12.7,8.6,23.4,20.3,26.7V467H82.3c-9.5,0-17.3,7.7-17.3,17.2c0,15.3,12.5,27.7,27.8,27.7h326.4
		c15.3,0,27.8-12.4,27.8-27.7C447,474.8,439.2,467,429.7,467z M419.2,497H92.8c-7.1,0-12.8-5.7-12.8-12.7c0-1.2,1-2.2,2.3-2.2h241.6
		c4.1,0,7.5-3.4,7.5-7.5s-3.4-7.5-7.5-7.5h-37.5V337.3c0-4.1-3.4-7.5-7.5-7.5h-40c-4.1,0-7.5,3.4-7.5,7.5V467h-97.2V134.9h27.4
		c4.1,0,7.5-3.4,7.5-7.5s-3.4-7.5-7.5-7.5h-34.9v-0.1c-7,0-12.8-5.7-12.8-12.7c0-1.2,1-2.2,2.3-2.2h285.5c1.2,0,2.3,1,2.3,2.2
		c0,7-5.7,12.7-12.8,12.7v0.1H196.7c-4.1,0-7.5,3.4-7.5,7.5c0,4.1,3.4,7.5,7.5,7.5h186.9V467h-24.7c-4.1,0-7.5,3.4-7.5,7.5
		s3.4,7.5,7.5,7.5h70.8c1.3,0,2.3,1,2.3,2.2C432,491.3,426.2,497,419.2,497L419.2,497z M271.4,359.8h-25v-15h25V359.8z M246.4,374.8
		h25V467h-25V374.8z"/>
	<path class="st0" d="M196.7,150h-40c-4.1,0-7.5,3.4-7.5,7.5v60c0,4.1,3.4,7.5,7.5,7.5h40c4.1,0,7.5-3.4,7.5-7.5v-60
		C204.2,153.4,200.8,150,196.7,150z M189.2,165v15h-25v-15H189.2z M164.2,210v-15h25v15H164.2z"/>
	<path class="st0" d="M196.7,239.9h-40c-4.1,0-7.5,3.4-7.5,7.5v60c0,4.1,3.4,7.5,7.5,7.5h40c4.1,0,7.5-3.4,7.5-7.5v-60
		C204.2,243.2,200.8,239.9,196.7,239.9z M189.2,254.9v15h-25v-15H189.2z M164.2,299.9v-15h25v15H164.2z"/>
	<path class="st0" d="M196.7,329.8h-40c-4.1,0-7.5,3.4-7.5,7.5v91.8c0,4.1,3.4,7.5,7.5,7.5h40c4.1,0,7.5-3.4,7.5-7.5v-91.8
		C204.2,333.2,200.8,329.8,196.7,329.8L196.7,329.8z M189.2,344.8v15h-25v-15H189.2z M164.2,421.6v-46.8h25v46.8H164.2z"/>
	<path class="st0" d="M278.9,150h-40c-4.1,0-7.5,3.4-7.5,7.5v60c0,4.1,3.4,7.5,7.5,7.5h40c4.1,0,7.5-3.4,7.5-7.5v-60
		C286.4,153.4,283,150,278.9,150z M271.4,165v15h-25v-15H271.4z M246.4,210v-15h25v15H246.4z"/>
	<path class="st0" d="M278.9,239.9h-40c-4.1,0-7.5,3.4-7.5,7.5v60c0,4.1,3.4,7.5,7.5,7.5h40c4.1,0,7.5-3.4,7.5-7.5v-60
		C286.4,243.2,283,239.9,278.9,239.9z M271.4,254.9v15h-25v-15H271.4z M246.4,299.9v-15h25v15H246.4z"/>
	<path class="st0" d="M321.4,225h40c4.1,0,7.5-3.4,7.5-7.5v-60c0-4.1-3.4-7.5-7.5-7.5h-40c-4.1,0-7.5,3.4-7.5,7.5v60
		C313.9,221.7,317.3,225,321.4,225z M328.9,210v-15h25v15H328.9z M353.9,165v15h-25v-15H353.9z"/>
	<path class="st0" d="M321.4,314.9h40c4.1,0,7.5-3.4,7.5-7.5v-60c0-4.1-3.4-7.5-7.5-7.5h-40c-4.1,0-7.5,3.4-7.5,7.5v60
		C313.9,311.5,317.3,314.9,321.4,314.9z M328.9,299.9v-15h25v15H328.9z M353.9,254.9v15h-25v-15H353.9z"/>
	<path class="st0" d="M368.9,429.1v-91.8c0-4.1-3.4-7.5-7.5-7.5h-40c-4.1,0-7.5,3.4-7.5,7.5v91.8c0,4.1,3.4,7.5,7.5,7.5h40
		C365.5,436.6,368.9,433.2,368.9,429.1z M353.9,344.8v15h-25v-15H353.9z M328.9,421.6v-46.8h25v46.8H328.9z"/>
</g>
</svg>
