<svg id="Layer_1" data-name="Layer 1" xmlns="http://www.w3.org/2000/svg" viewBox="0 0 302.36 286.66"><defs><style>.cls-1{font-size:249.27px;fill:#fbae54;font-family:ITCAvantGardePro-Bold, ITC Avant Garde Gothic Pro;font-weight:700;}.cls-2{fill:#fff;opacity:0.38;}</style></defs><title>KF</title><text class="cls-1" transform="translate(0 216.87)">KF</text><path class="cls-2" d="M226,203.12a45.09,45.09,0,0,0-74.27-15.73l-26.13,26.48a28.53,28.53,0,0,0,26.13,48l.41-.08a56.06,56.06,0,0,1,43.66,9.42,28.4,28.4,0,0,0,10.7,4.74,29,29,0,0,0,6.4.62,28.54,28.54,0,0,0,26.25-38.63Z" transform="translate(-27.04 -63.72)"/><path class="cls-2" d="M137.34,184.31a21.88,21.88,0,0,0,15.3-10.61,29.06,29.06,0,0,0-5.81-36.29A21.87,21.87,0,0,0,129,132.1c-12.69,2-21.15,15.39-18.85,29.79,1.84,11.47,10,20.18,19.59,22.23A20.89,20.89,0,0,0,137.34,184.31Z" transform="translate(-27.04 -63.72)"/><path class="cls-2" d="M180.53,168.38c14.67,3.11,29.49-8,33-24.68s-5.51-32.85-20.18-36-29.49,8-33,24.69S165.86,165.27,180.53,168.38Z" transform="translate(-27.04 -63.72)"/><path class="cls-2" d="M224.91,185.56h0a22.22,22.22,0,0,0,6.61,2.56c10.7,2.26,22.78-3.31,29.3-14.44a30.4,30.4,0,0,0,3.92-20.6,23,23,0,0,0-31-18.15,30.37,30.37,0,0,0-16,13.51C209.79,162,213,178.6,224.91,185.56Z" transform="translate(-27.04 -63.72)"/><path class="cls-2" d="M281.69,193.89h0c-8.54-9.62-24.36-9.59-35.27.08s-12.84,25.36-4.32,35a21.21,21.21,0,0,0,11.63,6.68c7.77,1.64,16.69-.61,23.63-6.75C288.27,219.21,290.21,203.51,281.69,193.89Z" transform="translate(-27.04 -63.72)"/></svg>