<?xml version="1.0" encoding="utf-8"?>
<!-- Generator: Adobe Illustrator 23.1.1, SVG Export Plug-In . SVG Version: 6.00 Build 0)  -->
<svg version="1.1" id="Capa_1" xmlns="http://www.w3.org/2000/svg" xmlns:xlink="http://www.w3.org/1999/xlink" x="0px" y="0px"
	 viewBox="0 0 512 512" style="enable-background:new 0 0 512 512;" xml:space="preserve">
<style type="text/css">
	.st0{fill:#FFFFFF;}
</style>
<g>
	<g>
		<path class="st0" d="M494.4,167.7h-4.9L443.7,44.3c-4-10.8-14.4-18.1-26-18.1H94.3c-11.5,0-22,7.3-26,18.1L22.5,167.7h-4.9
			c-9.7,0-17.6,7.9-17.6,17.6v14.1c0,9.7,7.9,17.6,17.6,17.6h2.6v164.4c0,4.1,3.4,7.5,7.5,7.5s7.5-3.4,7.5-7.5V217H153
			c6.6,0,12.8-2.6,17.4-7.2l85.6-85.6l85.6,85.6c4.7,4.7,10.9,7.2,17.4,7.2h117.8v19.9c0,4.1,3.4,7.5,7.5,7.5s7.5-3.4,7.5-7.5V217
			h2.6c9.7,0,17.6-7.9,17.6-17.6v-14.1C512,175.6,504.1,167.7,494.4,167.7L494.4,167.7z M82.4,49.5c1.8-5,6.6-8.3,11.9-8.3h323.4
			c5.3,0,10.1,3.3,11.9,8.3l43.9,118.1H369.3l-95.8-95.8c-4.7-4.7-10.9-7.2-17.4-7.2s-12.8,2.6-17.4,7.2l-95.8,95.8H38.5L82.4,49.5z
			 M497,199.4c0,1.4-1.2,2.6-2.6,2.6H359c-2.6,0-5-1-6.8-2.8l-90.9-90.9c-1.4-1.4-3.3-2.2-5.3-2.2s-3.9,0.8-5.3,2.2l-90.9,90.9
			c-1.8,1.8-4.3,2.8-6.8,2.8H17.6c-1.4,0-2.6-1.2-2.6-2.6v-14.1c0-1.4,1.2-2.6,2.6-2.6h128.2c2,0,3.9-0.8,5.3-2.2l98-98
			c1.8-1.8,4.3-2.8,6.8-2.8s5,1,6.8,2.8l98,98c1.4,1.4,3.3,2.2,5.3,2.2h128.2c1.4,0,2.6,1.2,2.6,2.6L497,199.4L497,199.4z"/>
		<path class="st0" d="M451,425.1c4.1,0,7.5-3.4,7.5-7.5V284.3c0-4.1-3.4-7.5-7.5-7.5h-101c-4.1,0-7.5,3.4-7.5,7.5v133.3
			c0,4.1,3.4,7.5,7.5,7.5H451z M443.5,377.8H408v-35.5h35.5V377.8z M393,377.8h-35.5v-35.5H393V377.8z M443.5,410.1h-86v-17.3h86
			V410.1z M443.5,327.3H408v-35.5h35.5V327.3z M393,291.8v35.5h-35.5v-35.5H393z"/>
		<path class="st0" d="M162.1,425.1c4.1,0,7.5-3.4,7.5-7.5V284.3c0-4.1-3.4-7.5-7.5-7.5H61c-4.1,0-7.5,3.4-7.5,7.5v133.3
			c0,4.1,3.4,7.5,7.5,7.5H162.1z M154.6,377.8H119v-35.5h35.5V377.8z M104,377.8H68.5v-35.5H104V377.8z M154.6,410.1h-86v-17.3h86
			V410.1z M154.6,327.3H119v-35.5h35.5V327.3z M104,291.8v35.5H68.5v-35.5H104z"/>
		<path class="st0" d="M280.2,309.1h-48.5c-4.1,0-7.5,3.4-7.5,7.5v32.3c0,4.1,3.4,7.5,7.5,7.5h48.5c4.1,0,7.5-3.4,7.5-7.5v-32.3
			C287.7,312.5,284.4,309.1,280.2,309.1z M272.7,341.4h-33.5v-17.3h33.5V341.4z"/>
		<path class="st0" d="M295.8,214.6c0-22-17.9-39.8-39.8-39.8s-39.8,17.9-39.8,39.8s17.9,39.8,39.8,39.8S295.8,236.5,295.8,214.6z
			 M231.2,214.6c0-13.7,11.1-24.8,24.8-24.8s24.8,11.1,24.8,24.8s-11.1,24.8-24.8,24.8S231.2,228.3,231.2,214.6L231.2,214.6z"/>
		<path class="st0" d="M504.5,436.4h-12.7V272c0-4.1-3.4-7.5-7.5-7.5s-7.5,3.4-7.5,7.5v164.4H320.1V284.3c0-4.1-3.4-7.5-7.5-7.5
			H199.4c-4.1,0-7.5,3.4-7.5,7.5v152.1H35.2v-19.9c0-4.1-3.4-7.5-7.5-7.5s-7.5,3.4-7.5,7.5v19.9H7.5c-4.1,0-7.5,3.4-7.5,7.5v34.3
			c0,4.1,3.4,7.5,7.5,7.5h497c4.1,0,7.5-3.4,7.5-7.5v-34.3C512,439.7,508.6,436.4,504.5,436.4z M206.9,381.7h10.7
			c4.1,0,7.5-3.4,7.5-7.5s-3.4-7.5-7.5-7.5h-10.7v-74.9h98.1v144.6h-98.1V381.7z M497,470.7H15v-19.3h482V470.7z"/>
	</g>
</g>
</svg>
